<svg aria-hidden="true" style="position:absolute;width:0;height:0;overflow:hidden" xmlns="http://www.w3.org/2000/svg">
  <defs>
    <symbol id="icon-icon" viewBox="0 0 32 32">
      <path fill="#fff" style="fill:var(--color1, #fff)"
        d="M12.636 31.213c1.395 0 2.449-.536 3.163-1.607l15.448-23.28c.257-.379.446-.753.569-1.121.123-.379.184-.742.184-1.088 0-.96-.335-1.752-1.004-2.377-.658-.636-1.473-.954-2.444-.954-.669 0-1.238.134-1.707.402-.457.257-.893.703-1.305 1.339L12.569 22.895l-6.494-7.782c-.703-.815-1.584-1.222-2.644-1.222-.993 0-1.813.318-2.46.954S0 16.279 0 17.238c0 .435.067.848.201 1.238.145.379.407.775.787 1.188l8.619 10.159c.792.926 1.802 1.389 3.029 1.389z" />
    </symbol>
    <symbol id="icon-phone" viewBox="0 0 32 32">
      <path fill="none" stroke-linejoin="round" stroke-linecap="round" stroke-width="2.909"
        d="M30.546 23.156v4.364a2.915 2.915 0 0 1-3.172 2.909 28.792 28.792 0 0 1-12.553-4.465 28.367 28.367 0 0 1-8.727-8.727A28.784 28.784 0 0 1 1.629 4.626a2.91 2.91 0 0 1 2.894-3.171h4.364a2.908 2.908 0 0 1 2.909 2.501 18.685 18.685 0 0 0 1.018 4.087 2.905 2.905 0 0 1-.655 3.069l-1.847 1.847a23.277 23.277 0 0 0 8.727 8.727l1.847-1.847a2.909 2.909 0 0 1 3.069-.655 18.7 18.7 0 0 0 4.087 1.018 2.913 2.913 0 0 1 2.502 2.953z" />
    </symbol>
    <symbol id="icon-mail" viewBox="0 0 32 32">
      <path fill="none" stroke-linejoin="round" stroke-linecap="round" stroke-width="2.667"
        d="M5.333 5.333h21.333c1.467 0 2.667 1.2 2.667 2.667v16c0 1.467-1.2 2.667-2.667 2.667H5.333A2.675 2.675 0 0 1 2.666 24V8c0-1.467 1.2-2.667 2.667-2.667z" />
      <path fill="none" stroke-linejoin="round" stroke-linecap="round" stroke-width="2.667"
        d="M29.333 8 16 17.333 2.667 8" />
    </symbol>
    <symbol id="icon-user" viewBox="0 0 32 32">
      <path fill="none" stroke-linejoin="round" stroke-linecap="round" stroke-width="2.667"
        d="M26.667 28v-2.667A5.332 5.332 0 0 0 21.334 20H10.667a5.332 5.332 0 0 0-5.333 5.333V28M16 14.667A5.333 5.333 0 1 0 16 4a5.333 5.333 0 0 0 0 10.667z" />
    </symbol>
    <symbol id="icon-x-close" viewBox="0 0 32 32">
      <path stroke-linejoin="round" stroke-linecap="round" stroke-width="2.286" d="M24 8 8 24M8 8l16 16" />
    </symbol>
  </defs>
</svg>